<svg width="25" height="25" viewBox="0 0 25 25" fill="none" xmlns="http://www.w3.org/2000/svg">
<path d="M6.00033 7.52408C6.00033 6.69271 6.26693 6.03469 6.72614 5.59201C7.18136 5.15266 7.78187 4.96998 8.36238 5.00398C9.39611 5.06398 10.4105 5.81201 10.6245 7.0754H10.8711L10.923 7.07806C11.046 7.09082 11.1599 7.14872 11.2427 7.24058C11.3255 7.33244 11.3714 7.45173 11.3714 7.57542C11.3714 7.6991 11.3255 7.8184 11.2427 7.91025C11.1599 8.00211 11.046 8.06001 10.923 8.07277L10.8717 8.07543H9.45942C9.32685 8.07543 9.19971 8.02275 9.10596 7.92898C9.01222 7.83521 8.95956 7.70803 8.95956 7.57542C8.95956 7.4428 9.01222 7.31562 9.10596 7.22185C9.19971 7.12808 9.32685 7.0754 9.45942 7.0754H9.60005C9.52522 6.78234 9.35943 6.52057 9.1265 6.3277C8.89358 6.13484 8.60552 6.02081 8.30373 6.00202C7.96782 5.98202 7.65057 6.08869 7.41929 6.31203C7.19135 6.53204 6.9994 6.91072 6.9994 7.52408V11.0149H18.497L18.5484 11.0169C18.672 11.0289 18.7868 11.0865 18.8703 11.1785C18.9537 11.2705 19 11.3903 19 11.5146C19 11.6388 18.9537 11.7586 18.8703 11.8506C18.7868 11.9427 18.672 12.0003 18.5484 12.0123L18.497 12.0136H18.2904C18.2871 12.7216 18.2604 13.527 18.0532 14.245C17.8219 15.045 17.358 15.7704 16.4769 16.1817L16.8555 17.3451C16.8965 17.4713 16.8857 17.6086 16.8255 17.7268C16.7654 17.845 16.6607 17.9345 16.5346 17.9755C16.4084 18.0165 16.2712 18.0057 16.153 17.9455C16.0348 17.8853 15.9454 17.7806 15.9044 17.6545L15.5245 16.4864C13.509 16.9578 10.7478 16.9351 8.76761 16.4831L8.38771 17.6545C8.3467 17.7806 8.25727 17.8853 8.13909 17.9455C8.02091 18.0057 7.88366 18.0165 7.75754 17.9755C7.63142 17.9345 7.52675 17.845 7.46657 17.7268C7.40639 17.6086 7.39561 17.4713 7.43662 17.3451L7.81452 16.1817C6.93342 15.7697 6.46954 15.045 6.23827 14.245C5.99767 13.4096 5.99833 12.4563 6.00033 11.6762V7.52408Z" fill="black"/>
</svg>
