<svg width="25" height="25" viewBox="0 0 25 25" fill="none" xmlns="http://www.w3.org/2000/svg">
<path d="M3.07812 18.47V13.3394C3.07812 13.0356 3.16569 12.7121 3.34081 12.3687C3.51594 12.0253 3.77042 11.7674 4.10425 11.595V9.23487C4.10425 8.65614 4.30161 8.16941 4.69633 7.77469C5.09105 7.37998 5.57777 7.18262 6.15651 7.18262H10.7741C11.1278 7.18262 11.4298 7.25547 11.6802 7.40118C11.9298 7.54621 12.1409 7.74699 12.3133 8.00352C12.4857 7.74699 12.6967 7.54621 12.9464 7.40118C13.1968 7.25547 13.4988 7.18262 13.8525 7.18262H18.47C19.0488 7.18262 19.5355 7.37998 19.9302 7.77469C20.3249 8.16941 20.5223 8.65614 20.5223 9.23487V11.595C20.8568 11.7674 21.1113 12.0253 21.2857 12.3687C21.4609 12.7121 21.5484 13.0356 21.5484 13.3394V18.47H20.5223V16.4178H4.10425V18.47H3.07812ZM12.8263 11.2871H19.4962V9.23487C19.4962 8.94414 19.3977 8.7006 19.2006 8.50427C19.0036 8.30794 18.7601 8.20943 18.47 8.20874H13.8525C13.5617 8.20874 13.3182 8.30725 13.1219 8.50427C12.9255 8.70129 12.827 8.94482 12.8263 9.23487V11.2871ZM5.13038 11.2871H11.8002V9.23487C11.8002 8.94414 11.7017 8.7006 11.5047 8.50427C11.3077 8.30794 11.0641 8.20943 10.7741 8.20874H6.15651C5.86577 8.20874 5.62224 8.30725 5.42591 8.50427C5.22957 8.70129 5.13106 8.94482 5.13038 9.23487V11.2871Z" fill="black"/>
</svg>
