<svg width="29" height="29" viewBox="0 0 29 29" fill="none" xmlns="http://www.w3.org/2000/svg">
<path d="M4.83398 14.4997C4.83398 11.9359 5.85243 9.47716 7.66529 7.66431C9.47814 5.85146 11.9369 4.83301 14.5007 4.83301C17.0644 4.83301 19.5232 5.85146 21.336 7.66431C23.1489 9.47716 24.1673 11.9359 24.1673 14.4997V20.6501C24.1673 21.6748 24.1673 22.1847 24.0151 22.5943C23.894 22.9189 23.7046 23.2137 23.4596 23.4586C23.2146 23.7036 22.9199 23.893 22.5953 24.0141C22.1857 24.1663 21.6745 24.1663 20.6511 24.1663H14.5007C11.9369 24.1663 9.47814 23.1479 7.66529 21.335C5.85243 19.5222 4.83398 17.0634 4.83398 14.4997Z" stroke="black" stroke-width="2"/>
<path d="M10.875 13.291H18.125M14.5 18.1243H18.125" stroke="black" stroke-width="2" stroke-linecap="round" stroke-linejoin="round"/>
</svg>
