<svg width="16" height="16" viewBox="0 0 16 16" fill="none" xmlns="http://www.w3.org/2000/svg">
<g clip-path="url(#clip0_127_388)">
<path d="M15.9932 8.14945C15.9932 7.49394 15.9387 7.01559 15.8209 6.51953H8.16016V9.47819H12.6568C12.5662 10.2135 12.0767 11.3208 10.9887 12.0648L10.9735 12.1639L13.3957 13.9973L13.5635 14.0137C15.1047 12.6229 15.9932 10.5766 15.9932 8.14945Z" fill="#4285F4"/>
<path d="M8.16016 15.9446C10.3632 15.9446 12.2126 15.2359 13.5635 14.0134L10.9887 12.0646C10.2997 12.534 9.37497 12.8618 8.16016 12.8618C6.00247 12.8618 4.17116 11.4711 3.51834 9.54883L3.42266 9.55677L0.904031 11.4613L0.871094 11.5508C2.21284 14.1551 4.96891 15.9446 8.16016 15.9446Z" fill="#34A853"/>
<path d="M3.51756 9.54887C3.34531 9.05281 3.24563 8.52127 3.24563 7.97208C3.24563 7.42283 3.34531 6.89135 3.5085 6.39529L3.50394 6.28964L0.95375 4.35449L0.870313 4.39327C0.317313 5.474 0 6.68762 0 7.97208C0 9.25654 0.317313 10.4701 0.870313 11.5508L3.51756 9.54887Z" fill="#FBBC05"/>
<path d="M8.16016 3.08269C9.69228 3.08269 10.7258 3.72934 11.3151 4.26974L13.6178 2.07286C12.2036 0.788397 10.3632 0 8.16016 0C4.96891 0 2.21284 1.78937 0.871094 4.39371L3.50928 6.39573C4.17116 4.47347 6.00247 3.08269 8.16016 3.08269Z" fill="#EB4335"/>
</g>
<defs>
<clipPath id="clip0_127_388">
<rect width="16" height="16" fill="white"/>
</clipPath>
</defs>
</svg>
