<svg width="28" height="28" viewBox="0 0 28 28" fill="none" xmlns="http://www.w3.org/2000/svg">
<path d="M17.0165 20.4197C17.0165 21.3223 16.658 22.1879 16.0197 22.8262C15.3815 23.4644 14.5158 23.8229 13.6132 23.8229C12.7106 23.8229 11.845 23.4644 11.2068 22.8262C10.5685 22.1879 10.21 21.3223 10.21 20.4197M6.85548 20.4197C6.466 20.4195 6.08292 20.3206 5.74207 20.1321C5.40123 19.9436 5.11375 19.6718 4.90654 19.342C4.69619 19.0117 4.57133 18.6343 4.5432 18.2438C4.51508 17.8533 4.58459 17.4619 4.74545 17.1049L5.36371 15.73C6.10928 14.0687 6.55259 12.2877 6.67284 10.4708L6.70801 9.9342C6.82341 8.16877 7.59991 6.51168 8.8827 5.29327C10.1594 4.08228 11.8513 3.40601 13.611 3.40332C15.3707 3.40601 17.0625 4.08228 18.3393 5.29327C19.6218 6.51139 20.3983 8.16803 20.5139 9.93306L20.5491 10.4708C20.6694 12.2877 21.1127 14.0687 21.8582 15.73L22.4776 17.1038C22.64 17.461 22.7107 17.853 22.6833 18.2444C22.656 18.6358 22.5315 19.0142 22.3211 19.3454C22.113 19.6754 21.8244 19.947 21.4825 20.1349C21.1406 20.3229 20.7566 20.4208 20.3665 20.4197H6.85548Z" stroke="black" stroke-width="1.5" stroke-miterlimit="10" stroke-linecap="round" stroke-linejoin="round"/>
</svg>
