<svg width="22" height="22" viewBox="0 0 22 22" fill="none" xmlns="http://www.w3.org/2000/svg">
<path d="M10.9993 3.66699C11.9718 3.66699 12.9044 4.0533 13.5921 4.74093C14.2797 5.42857 14.666 6.3612 14.666 7.33366C14.666 8.30612 14.2797 9.23875 13.5921 9.92638C12.9044 10.614 11.9718 11.0003 10.9993 11.0003C10.0269 11.0003 9.09426 10.614 8.40662 9.92638C7.71899 9.23875 7.33268 8.30612 7.33268 7.33366C7.33268 6.3612 7.71899 5.42857 8.40662 4.74093C9.09426 4.0533 10.0269 3.66699 10.9993 3.66699ZM10.9993 18.3337C10.9993 18.3337 18.3327 18.3337 18.3327 16.5003C18.3327 14.3003 14.7577 11.917 10.9993 11.917C7.24102 11.917 3.66602 14.3003 3.66602 16.5003C3.66602 18.3337 10.9993 18.3337 10.9993 18.3337Z" fill="black"/>
</svg>
